<?xml version="1.0" encoding="UTF-8"?>
<svg id="Layer_1" xmlns="http://www.w3.org/2000/svg" xmlns:xlink="http://www.w3.org/1999/xlink" version="1.1" viewBox="0 0 1236.6 329.12">
  <!-- Generator: Adobe Illustrator 29.2.1, SVG Export Plug-In . SVG Version: 2.1.0 Build 116)  -->
  <defs>
    <style>
      .st0 {
        fill: #ffbcd8;
      }

      .st0, .st1, .st2 {
        fill-rule: evenodd;
      }

      .st3 {
        fill: #7a1b1b;
      }

      .st1 {
        fill: #ff8cc8;
      }

      .st2 {
        fill: #ff6ca8;
      }
    </style>
  </defs>
  <path class="st2" d="M195.31,56.24c-25.87,15.43-43.75,42.87-45.96,74.62,18.7,16.03,33.58,36.37,43.11,59.49.9-2.19,1.85-4.35,2.85-6.49,1,2.14,1.95,4.3,2.85,6.49,9.52-23.12,24.41-43.46,43.1-59.49-2.21-31.75-20.09-59.18-45.96-74.62"/>
  <path class="st3" d="M156.14,83.68c8.7-14.12,20.72-25.98,34.96-34.48l4.21-2.51,4.21,2.51c14.24,8.5,26.26,20.36,34.96,34.48,8.47,13.75,13.8,29.63,14.98,46.62l.28,4.09-3.14,2.69c-8.88,7.61-16.87,16.28-23.78,25.82-6.85,9.45-12.6,19.7-17.07,30.55l-7.57,18.39-2.86-6.92-2.86,6.93-7.58-18.39c-4.47-10.85-10.22-21.1-17.07-30.55-6.91-9.54-14.9-18.21-23.78-25.82l-3.15-2.69.29-4.09c1.18-17,6.51-32.87,14.98-46.63M195.31,65.96c-10.16,6.89-18.78,15.88-25.22,26.34-6.43,10.44-10.7,22.37-12.17,35.16,8.62,7.78,16.4,16.43,23.19,25.81,4.07,5.62,7.8,11.51,11.16,17.66l3.05-6.54,3.05,6.54c3.36-6.14,7.08-12.04,11.15-17.65,6.8-9.38,14.58-18.03,23.19-25.81-1.48-12.79-5.74-24.73-12.17-35.16-6.44-10.46-15.06-19.45-25.22-26.34Z"/>
  <path class="st1" d="M243.72,85.62c-21.19,16.62-37.99,38.57-48.4,63.84,7.59,18.42,11.77,38.6,11.77,59.76,0,11.94-1.33,23.57-3.86,34.74,39.79-4,71.13-37.84,71.13-78.65v-98.5c-10.96,5.1-21.23,11.43-30.64,18.81"/>
  <path class="st3" d="M208.83,109.5c8.64-11.4,18.67-21.6,29.8-30.34,4.93-3.86,10.13-7.49,15.6-10.84,5.44-3.34,11-6.34,16.65-8.97l11.7-5.44v111.4c0,22.39-8.57,42.89-22.6,58.41-14.15,15.64-33.87,26.18-55.95,28.4l-8.81-9.96c1.19-5.28,2.11-10.73,2.73-16.33.6-5.37.9-10.91.9-16.62,0-9.93-.96-19.61-2.8-28.95-1.9-9.65-4.71-18.91-8.33-27.7l-1.28-3.12,1.28-3.12c5.44-13.21,12.56-25.58,21.1-36.84M248.79,92.08c-10.15,7.96-19.2,17.15-26.91,27.32-7.01,9.24-12.97,19.36-17.7,30.15,3.45,8.89,6.14,18.1,8.01,27.57,2.05,10.41,3.13,21.14,3.13,32.1,0,6.14-.35,12.28-1.03,18.42-.23,2.05-.5,4.1-.8,6.15,13.41-3.58,25.28-11.02,34.35-21.05,11.36-12.56,18.3-29.2,18.3-47.42v-84.97c-1.13.65-2.25,1.32-3.35,1.99-4.8,2.95-9.47,6.21-13.99,9.75Z"/>
  <path class="st0" d="M266.13,103.22c-.69.43-1.38.86-2.06,1.29-.73.47-1.46.94-2.18,1.42-2.45,1.62-4.85,3.32-7.2,5.09-2.46,1.85-4.86,3.77-7.2,5.77-3.68,3.14-7.21,6.46-10.58,9.95-8.1,8.4-15.23,17.74-21.18,27.86-2.86,4.86-5.46,9.94-7.77,15.2-1.58,3.6-3.04,7.29-4.35,11.06-.93,2.66-1.78,5.37-2.56,8.11-1.85,6.51-3.29,13.24-4.26,20.16-.05.32-.09.64-.13.97-.72,5.31-1.15,10.52-1.3,15.61-.1,3.51-.09,6.98.05,10.4h.03s-.12,0-.12,0h-1.14c-.61-3.38-1.11-6.81-1.5-10.3-.6-5.37-.9-10.91-.9-16.62,0-9.93.96-19.61,2.8-28.95,1.9-9.65,4.71-18.91,8.33-27.7,4.47-10.85,10.22-21.1,17.07-30.55,6.91-9.54,14.9-18.21,23.78-25.82,5.13-4.39,10.57-8.45,16.3-12.14,1.99-1.28,4.02-2.52,6.08-3.71v22.88h0Z"/>
  <path class="st1" d="M195.31,149.46c-9.52-23.12-24.41-43.47-43.1-59.49-10.81-9.26-22.88-17.08-35.94-23.16v98.5c0,40.8,31.33,74.64,71.13,78.65,2.6.26,5.24.4,7.92.4s5.31-.13,7.92-.4c2.52-11.18,3.86-22.8,3.86-34.74,0-21.16-4.19-41.34-11.77-59.76"/>
  <path class="st0" d="M124.5,103.22c.69.43,1.38.86,2.06,1.29.73.47,1.46.94,2.18,1.42,2.45,1.62,4.85,3.32,7.2,5.09,2.46,1.85,4.86,3.77,7.2,5.78,3.68,3.14,7.21,6.46,10.58,9.95,8.1,8.4,15.23,17.74,21.18,27.86,2.86,4.86,5.46,9.94,7.77,15.2,1.58,3.6,3.04,7.29,4.35,11.06.93,2.66,1.78,5.37,2.56,8.11,1.85,6.51,3.29,13.24,4.26,20.16.05.32.09.64.13.97.72,5.31,1.15,10.52,1.3,15.61.1,3.51.09,6.98-.05,10.4h-.03s.12,0,.12,0h1.14c.61-3.37,1.11-6.81,1.5-10.3.6-5.37.9-10.91.9-16.62,0-9.93-.96-19.61-2.8-28.95-1.9-9.65-4.71-18.91-8.33-27.7-4.47-10.85-10.22-21.1-17.07-30.55-6.91-9.54-14.9-18.21-23.78-25.82-5.13-4.39-10.57-8.45-16.29-12.14-1.99-1.28-4.02-2.52-6.08-3.71v22.88h0Z"/>
  <path class="st3" d="M183.96,112.38c7.55,10.42,13.93,21.81,18.94,33.96,4.07,9.87,7.2,20.17,9.29,30.78,2.05,10.41,3.13,21.14,3.13,32.1,0,6.14-.35,12.28-1.03,18.42-.68,6.1-1.7,12.15-3.05,18.13l-1.3,5.76-5.9.6c-1.45.15-2.9.26-4.36.33-1.74.09-3.2.13-4.36.13s-2.62-.04-4.36-.13c-1.45-.07-2.91-.18-4.36-.33-22.08-2.22-41.8-12.76-55.95-28.4-14.03-15.51-22.6-36.02-22.6-58.41V53.91l11.7,5.45c6.78,3.16,13.36,6.8,19.71,10.89,6.33,4.08,12.37,8.59,18.09,13.49,9.91,8.49,18.78,18.11,26.42,28.65M187.73,152.58c-4.47-10.85-10.22-21.1-17.07-30.55-6.91-9.54-14.9-18.21-23.78-25.82-5.13-4.39-10.57-8.45-16.29-12.14-1.99-1.28-4.02-2.52-6.08-3.71v84.97c0,18.21,6.94,34.86,18.3,47.42,11.49,12.71,27.5,21.26,45.41,23.07,1.16.12,2.33.21,3.52.27.89.04,2.09.07,3.59.07h1.14c.61-3.38,1.11-6.81,1.5-10.3.6-5.37.9-10.91.9-16.62,0-9.93-.96-19.61-2.8-28.95-1.9-9.65-4.71-18.91-8.33-27.7Z"/>
  <path class="st1" d="M172.7,98.49c5.87-9.2,13.58-17.12,22.61-23.24,9.04,6.12,16.75,14.05,22.62,23.25,1.26-1.4,2.54-2.77,3.85-4.12-.4-.7-.82-1.4-1.25-2.09-6.44-10.46-15.06-19.45-25.22-26.34-10.16,6.89-18.78,15.88-25.22,26.34-.42.69-.84,1.38-1.24,2.08,1.31,1.35,2.59,2.72,3.85,4.12"/>
  <g>
    <path class="st3" d="M430.72,218.56c-8.61-3.87-15.36-9.24-20.25-16.11-4.9-6.87-7.42-14.8-7.58-23.8h22.97c.79,7.74,3.98,14.25,9.59,19.54,5.6,5.29,13.77,7.93,24.51,7.93s18.36-2.56,24.28-7.7c5.92-5.13,8.88-11.72,8.88-19.78,0-6.31-1.74-11.45-5.21-15.39-3.47-3.94-7.82-6.95-13.03-9-5.21-2.05-12.24-4.26-21.08-6.63-10.89-2.84-19.62-5.68-26.17-8.53-6.55-2.84-12.16-7.3-16.82-13.38-4.66-6.08-6.99-14.25-6.99-24.51,0-9,2.29-16.97,6.87-23.92,4.58-6.95,11.01-12.32,19.3-16.1,8.29-3.79,17.8-5.68,28.54-5.68,15.47,0,28.14,3.87,38.01,11.61,9.87,7.74,15.43,18,16.7,30.79h-23.68c-.79-6.31-4.11-11.88-9.95-16.7-5.84-4.81-13.58-7.22-23.21-7.22-9,0-16.34,2.33-22.03,6.99-5.68,4.66-8.53,11.17-8.53,19.54,0,6,1.69,10.89,5.09,14.68,3.39,3.79,7.58,6.67,12.55,8.64,4.97,1.98,11.96,4.23,20.96,6.75,10.89,3,19.66,5.96,26.29,8.88,6.63,2.92,12.32,7.42,17.05,13.5,4.74,6.08,7.11,14.33,7.11,24.75,0,8.05-2.13,15.63-6.39,22.74-4.26,7.11-10.58,12.87-18.95,17.29-8.37,4.42-18.24,6.63-29.61,6.63s-20.65-1.93-29.25-5.8Z"/>
    <path class="st3" d="M587.27,98.24c8.44-4.97,18.27-7.46,29.49-7.46s21.98,2.76,31.38,8.29c9.39,5.53,16.78,13.3,22.14,23.33,5.37,10.03,8.05,21.67,8.05,34.93s-2.69,24.79-8.05,35.05c-5.37,10.27-12.75,18.24-22.14,23.92-9.4,5.68-19.86,8.53-31.38,8.53s-20.81-2.49-29.25-7.46c-8.45-4.97-14.88-11.17-19.3-18.59v85.5h-21.55V92.91h21.55v23.92c4.26-7.42,10.62-13.62,19.07-18.59ZM650.39,131.76c-3.95-7.26-9.28-12.79-15.99-16.58-6.71-3.79-14.09-5.68-22.14-5.68s-15.2,1.94-21.91,5.8c-6.71,3.87-12.08,9.47-16.11,16.82-4.03,7.34-6.04,15.83-6.04,25.46s2.01,18.35,6.04,25.7c4.03,7.34,9.39,12.95,16.11,16.82,6.71,3.87,14.01,5.8,21.91,5.8s15.43-1.93,22.14-5.8c6.71-3.87,12.04-9.47,15.99-16.82,3.94-7.34,5.92-15.99,5.92-25.93s-1.98-18.31-5.92-25.58Z"/>
    <path class="st3" d="M744.53,96.7c7.02-4.1,15.59-6.16,25.7-6.16v22.26h-5.68c-24.16,0-36.24,13.11-36.24,39.31v70.58h-21.55V92.91h21.55v21.08c3.79-7.42,9.2-13.18,16.22-17.29Z"/>
    <path class="st3" d="M795.8,67.57c-2.84-2.84-4.26-6.31-4.26-10.42s1.42-7.58,4.26-10.42c2.84-2.84,6.31-4.26,10.42-4.26s7.3,1.42,10.07,4.26c2.76,2.84,4.14,6.32,4.14,10.42s-1.38,7.58-4.14,10.42c-2.76,2.84-6.12,4.26-10.07,4.26s-7.58-1.42-10.42-4.26ZM816.64,92.91v129.79h-21.55V92.91h21.55Z"/>
    <path class="st3" d="M954.95,104.87c9.79,9.55,14.68,23.33,14.68,41.33v76.5h-21.32v-73.42c0-12.94-3.24-22.85-9.71-29.72-6.48-6.87-15.32-10.3-26.53-10.3s-20.41,3.55-27.12,10.66c-6.71,7.11-10.07,17.45-10.07,31.03v71.76h-21.55V92.91h21.55v18.47c4.26-6.63,10.07-11.76,17.41-15.39,7.34-3.63,15.43-5.45,24.28-5.45,15.79,0,28.58,4.78,38.37,14.33Z"/>
    <path class="st3" d="M1087.94,98.12c8.44,4.9,14.72,11.05,18.83,18.47v-23.68h21.79v132.63c0,11.84-2.53,22.38-7.58,31.62-5.05,9.24-12.28,16.46-21.67,21.67-9.4,5.21-20.33,7.82-32.8,7.82-17.05,0-31.26-4.03-42.63-12.08-11.37-8.05-18.08-19.03-20.13-32.92h21.32c2.37,7.89,7.26,14.25,14.68,19.07,7.42,4.81,16.34,7.22,26.76,7.22,11.84,0,21.51-3.71,29.01-11.13,7.5-7.42,11.25-17.84,11.25-31.26v-27.24c-4.26,7.58-10.58,13.9-18.95,18.95-8.37,5.06-18.16,7.58-29.37,7.58s-21.99-2.84-31.38-8.53c-9.4-5.68-16.78-13.66-22.14-23.92-5.37-10.26-8.05-21.94-8.05-35.05s2.68-24.9,8.05-34.93c5.37-10.03,12.75-17.8,22.14-23.33,9.39-5.52,19.85-8.29,31.38-8.29s21.04,2.45,29.49,7.34ZM1100.84,131.99c-3.95-7.26-9.28-12.83-15.99-16.7-6.71-3.87-14.09-5.8-22.14-5.8s-15.4,1.89-22.03,5.68c-6.63,3.79-11.92,9.32-15.87,16.58-3.95,7.26-5.92,15.79-5.92,25.58s1.97,18.59,5.92,25.93c3.94,7.34,9.24,12.95,15.87,16.82,6.63,3.87,13.97,5.8,22.03,5.8s15.43-1.93,22.14-5.8c6.71-3.87,12.04-9.47,15.99-16.82,3.94-7.34,5.92-15.91,5.92-25.7s-1.98-18.31-5.92-25.58Z"/>
  </g>
</svg>